<svg id="SvgjsSvg1040" xmlns="http://www.w3.org/2000/svg" version="1.1" xmlns:xlink="http://www.w3.org/1999/xlink" xmlns:svgjs="http://svgjs.com/svgjs" width="34" height="34.000000000000014" viewBox="0 0 34 34.000000000000014"><title>Ellipse 2</title><desc>Created with Avocode.</desc><defs id="SvgjsDefs1041"><clipPath id="SvgjsClipPath1045"><path id="SvgjsPath1044" d="M688 149V115H722V149ZM691 131.8C691 139.42200000000003 697.179 145.60000000000002 704.8 145.60000000000002C712.4219999999999 145.60000000000002 718.5999999999999 139.42200000000003 718.5999999999999 131.8C718.5999999999999 124.17800000000001 712.4219999999999 118.00000000000001 704.8 118.00000000000001C697.179 118.00000000000001 691 124.17800000000001 691 131.8Z " fill="#ffffff"></path></clipPath></defs><path id="SvgjsPath1042" d="M704.8 118C712.4219999999999 118 718.5999999999999 124.178 718.5999999999999 131.8C718.5999999999999 139.42200000000003 712.4219999999999 145.60000000000002 704.8 145.60000000000002C697.179 145.60000000000002 691 139.42200000000003 691 131.8C691 124.17800000000001 697.179 118.00000000000001 704.8 118.00000000000001Z " fill="#e8e8e8" fill-opacity="0" transform="matrix(1,0,0,1,-688,-114.99999999999999)"></path><path id="SvgjsPath1043" d="M704.8 118C712.4219999999999 118 718.5999999999999 124.178 718.5999999999999 131.8C718.5999999999999 139.42200000000003 712.4219999999999 145.60000000000002 704.8 145.60000000000002C697.179 145.60000000000002 691 139.42200000000003 691 131.8C691 124.17800000000001 697.179 118.00000000000001 704.8 118.00000000000001Z " fill-opacity="0" fill="#ffffff" stroke-dasharray="0" stroke-linejoin="round" stroke-linecap="round" stroke-opacity="1" stroke="#4d5975" stroke-miterlimit="50" stroke-width="6" clip-path="url(&quot;#SvgjsClipPath1045&quot;)" transform="matrix(1,0,0,1,-688,-114.99999999999999)"></path><path id="SvgjsPath1046" d="M707.228 132.093L710.4319999999999 128.88799999999998C710.9019999999999 128.41899999999998 710.9019999999999 127.64899999999997 710.4319999999999 127.17999999999998L710.0049999999999 126.75299999999997C709.5359999999998 126.28199999999997 708.7659999999998 126.28199999999997 708.2959999999999 126.75299999999997L705.092 129.95699999999997L701.888 126.75299999999997C701.418 126.28299999999997 700.649 126.28299999999997 700.1790000000001 126.75299999999997L699.7520000000001 127.17999999999998C699.282 127.64899999999997 699.282 128.41899999999998 699.7520000000001 128.88799999999998L702.956 132.09199999999998L699.7520000000001 135.297C699.282 135.766 699.282 136.536 699.7520000000001 137.005L700.1790000000001 137.432C700.6490000000001 137.902 701.4180000000001 137.902 701.888 137.432L705.092 134.22799999999998L708.2959999999999 137.432C708.766 137.902 709.536 137.902 710.0049999999999 137.432L710.4319999999999 137.005C710.9019999999999 136.535 710.9019999999999 135.766 710.4319999999999 135.297Z " fill="#4d5975" fill-opacity="1" transform="matrix(1,0,0,1,-688,-114.99999999999999)"></path></svg>